<svg height="98" width="151" xmlns="http://www.w3.org/2000/svg"><g transform="translate(0 -954.36218)"><path d="m104.7944 978.86598c0 13.52888-13.79395 24.49622-30.80965 24.49622-17.01571 0-30.80966-10.96734-30.80966-24.49622 0-13.52887 13.79395-24.4962 30.80966-24.4962 17.0157 0 30.80965 10.96733 30.80965 24.4962z" fill="#729fcf"/><path d="m103.42412 979.70978c0 13.43025-13.23431 24.31762-29.55965 24.31762-16.32535 0-29.55966-10.88737-29.55966-24.31762 0-13.43026 13.23431-24.31763 29.55966-24.31763 16.32534 0 29.55965 10.88737 29.55965 24.31763z" fill="#eeeeec"/><path d="m106.05711 1009.9282c0 12.2736-11.19345 22.2233-25.00127 22.2233-13.80783 0-25.00128-9.9497-25.00128-22.2233 0-12.27363 11.19345-22.22337 25.00128-22.22337 13.80782 0 25.00127 9.94974 25.00127 22.22337z" fill="#eeeeec"/><path d="m125.75508 992.7556c0 12.2736-11.19345 22.2234-25.00127 22.2234-13.80783 0-25.00128-9.9498-25.00128-22.2234 0-12.27362 11.19345-22.22336 25.00128-22.22336 13.80782 0 25.00127 9.94974 25.00127 22.22336z" fill="#729fcf"/><path d="m70.19668 999.82666c0 12.27364-11.19345 22.22334-25.00127 22.22334-13.80783 0-25.00128-9.9497-25.00128-22.22334 0-12.27362 11.19345-22.22336 25.00128-22.22336 13.80782 0 25.00127 9.94974 25.00127 22.22336z" fill="#729fcf"/><path d="m72.61576 1000.9598c0 12.2736-11.47328 22.2233-25.62628 22.2233s-25.62627-9.9497-25.62627-22.2233c0-12.27364 11.47327-22.22338 25.62627-22.22338s25.62628 9.94974 25.62628 22.22338z" fill="#eeeeec"/><path d="m40.3972 1019.2721c0 9.9026-8.93215 17.9302-19.95051 17.9302-11.01837 0-19.95051-8.0276-19.95051-17.9302s8.93214-17.9302 19.95051-17.9302c11.01836 0 19.95051 8.0276 19.95051 17.9302z" fill="#729fcf"/><path d="m40.95786 1019.699c0 9.3048-8.77225 16.8479-19.59337 16.8479s-19.59338-7.5431-19.59338-16.8479c0-9.3049 8.77226-16.848 19.59338-16.848s19.59337 7.5431 19.59337 16.848z" fill="#eeeeec"/><path d="m126.18719 994.88834c0 12.86536-11.39333 23.29476-25.44771 23.29476s-25.44771-10.4294-25.44771-23.29476c0-12.86535 11.39333-23.29478 25.44771-23.29478s25.44771 10.42943 25.44771 23.29478z" fill="#eeeeec"/><path d="m150.50382 1000.3317c0 12.2737-11.19345 22.2234-25.00127 22.2234-13.80783 0-25.00128-9.9497-25.00128-22.2234 0-12.27358 11.19345-22.22332 25.00128-22.22332 13.80782 0 25.00127 9.94974 25.00127 22.22332z" fill="#729fcf"/><path d="m149.75861 1000.2455c0 11.5833-11.2734 20.9733-25.17984 20.9733-13.90645 0-25.17985-9.39-25.17985-20.9733 0-11.58327 11.2734-20.97337 25.17985-20.97337 13.90644 0 25.17984 9.3901 25.17984 20.97337z" fill="#eeeeec"/><path d="m41.91242 1033.6668c0 6.5552-5.201 11.8693-11.61676 11.8693-6.41575 0-11.61675-5.3141-11.61675-11.8693 0-6.5553 5.201-11.8693 11.61675-11.8693 6.41576 0 11.61676 5.314 11.61676 11.8693z" fill="#729fcf"/><path d="m42.26694 1032.9241c0 6.4566-5.12105 11.6907-11.43818 11.6907-6.31714 0-11.43819-5.2341-11.43819-11.6907s5.12105-11.6908 11.43819-11.6908c6.31713 0 11.43818 5.2342 11.43818 11.6908z" fill="#eeeeec"/><path d="m84.33882 1030.1312c0 12.2737-11.19345 22.2234-25.00127 22.2234-13.80783 0-25.00128-9.9497-25.00128-22.2234 0-12.2736 11.19345-22.2233 25.00128-22.2233 13.80782 0 25.00127 9.9497 25.00127 22.2233z" fill="#729fcf"/><path d="m84.47542 1029.5542c0 12.0144-10.93019 21.7539-24.41325 21.7539-13.48308 0-24.41327-9.7395-24.41327-21.7539s10.93019-21.754 24.41327-21.754c13.48306 0 24.41325 9.7396 24.41325 21.754z" fill="#eeeeec"/><path d="m139.39213 1020.0297c0 12.2736-11.19345 22.2234-25.00127 22.2234-13.80783 0-25.00128-9.9498-25.00128-22.2234s11.19345-22.22335 25.00128-22.22335c13.80782 0 25.00127 9.94975 25.00127 22.22335z" fill="#729fcf"/><path d="m138.06218 1019.7544c0 11.8052-11.21344 21.3752-25.04592 21.3752s-25.04591-9.57-25.04591-21.3752c0-11.8051 11.21343-21.37511 25.04591-21.37511s25.04592 9.57001 25.04592 21.37511z" fill="#eeeeec"/><path d="m90.95831 1047.975c-7.9716 1.3183-15.50224-3.8048-16.82016-11.4427-1.31791-7.638 4.07596-14.8984 12.04756-16.2166 7.9716-1.3183 15.50224 3.8048 16.82016 11.4428 1.31792 7.6379-4.07596 14.8983-12.04756 16.2165z" fill="#729fcf"/><path d="m91.26841 1046.5778c-7.83783 1.3182-15.2421-3.8049-16.5379-11.4428s4.00756-14.8984 11.84539-16.2166c7.83783-1.3183 15.24211 3.8048 16.53791 11.4428 1.29579 7.6379-4.00757 14.8983-11.8454 16.2166z" fill="#eeeeec"/></g></svg>